<svg width="482" height="472" xmlns="http://www.w3.org/2000/svg" xmlns:xlink="http://www.w3.org/1999/xlink" overflow="hidden"><defs><clipPath id="clip0"><rect x="256" y="75" width="482" height="472"/></clipPath></defs><g clip-path="url(#clip0)" transform="translate(-256 -75)"><path d="M409.558 443.853 453.795 443.853 498.032 443.853 542.269 443.853 586.506 443.853 586.506 447.848 542.269 447.848 498.032 447.848 453.795 447.848 409.558 447.848ZM568.991 389.919 552.116 418.284 573.79 418.284ZM442.028 389.919 425.153 418.284 446.827 418.284ZM567.232 381.928 573.31 381.928C574.057 381.928 574.59 382.088 574.91 382.408 575.23 382.727 575.416 383.153 575.47 383.686L584.267 435.383C584.427 436.182 584.347 436.795 584.027 437.221 583.707 437.647 583.281 437.86 582.747 437.86L578.669 437.86C578.082 437.86 577.629 437.714 577.309 437.421 576.989 437.128 576.776 436.688 576.669 436.102L574.59 425.156 548.357 425.156 541.479 436.502C541.266 436.875 540.96 437.194 540.56 437.461 540.16 437.727 539.693 437.86 539.16 437.86L534.841 437.86C534.148 437.86 533.682 437.58 533.442 437.021 533.202 436.462 533.242 435.916 533.562 435.383L564.353 383.686C564.673 383.153 565.059 382.727 565.512 382.408 565.966 382.088 566.539 381.928 567.232 381.928ZM440.269 381.928 446.347 381.928C447.094 381.928 447.627 382.088 447.947 382.408 448.267 382.727 448.453 383.153 448.507 383.686L457.304 435.383C457.464 436.182 457.384 436.795 457.064 437.221 456.744 437.647 456.318 437.86 455.784 437.86L451.706 437.86C451.119 437.86 450.666 437.714 450.346 437.421 450.026 437.128 449.813 436.688 449.706 436.102L447.627 425.156 421.394 425.156 414.516 436.502C414.303 436.875 413.997 437.194 413.597 437.461 413.197 437.727 412.73 437.86 412.197 437.86L407.878 437.86C407.185 437.86 406.719 437.58 406.479 437.021 406.239 436.462 406.279 435.916 406.599 435.383L437.39 383.686C437.71 383.153 438.096 382.727 438.549 382.408 439.003 382.088 439.576 381.928 440.269 381.928ZM506.25 381.129C509.502 381.129 512.301 381.569 514.647 382.448 516.993 383.327 518.913 384.499 520.406 385.963 521.898 387.428 522.925 389 523.485 390.678 524.045 392.356 524.191 393.994 523.925 395.592 523.871 395.964 523.711 396.324 523.445 396.67 523.178 397.017 522.752 397.19 522.165 397.19L517.606 397.19C517.286 397.19 516.94 397.083 516.567 396.87 516.193 396.657 515.98 396.257 515.927 395.672 516.087 393.488 515.234 391.65 513.368 390.158 511.502 388.667 509.022 387.921 505.93 387.921 502.517 387.921 499.532 388.587 496.972 389.919 494.413 391.25 492.814 393.328 492.174 396.151 491.801 397.962 491.987 399.467 492.734 400.665 493.48 401.864 494.84 402.916 496.812 403.822 498.785 404.727 501.451 405.686 504.81 406.698 508.809 407.87 512.008 409.175 514.407 410.613 516.807 412.052 518.459 413.796 519.366 415.847 520.272 417.898 520.406 420.441 519.766 423.478 518.699 428.485 516.1 432.267 511.968 434.824 507.836 437.381 502.491 438.659 495.933 438.659 491.294 438.659 487.509 437.967 484.576 436.582 481.644 435.197 479.524 433.359 478.218 431.068 476.912 428.778 476.445 426.354 476.818 423.797 476.872 423.371 477.058 422.985 477.378 422.639 477.698 422.292 478.098 422.119 478.578 422.119L482.977 422.119C483.563 422.119 483.976 422.279 484.216 422.599 484.456 422.918 484.629 423.291 484.736 423.717 484.736 424.996 485.123 426.261 485.896 427.513 486.669 428.764 487.895 429.803 489.575 430.629 491.254 431.454 493.48 431.867 496.253 431.867 500.838 431.867 504.437 431.055 507.049 429.43 509.662 427.806 511.262 425.635 511.848 422.918 512.275 421.054 512.035 419.549 511.128 418.404 510.222 417.259 508.689 416.233 506.53 415.328 504.37 414.422 501.531 413.436 498.012 412.371 494.387 411.253 491.454 409.974 489.215 408.536 486.975 407.098 485.456 405.326 484.656 403.222 483.856 401.118 483.776 398.548 484.416 395.512 485.376 391.197 487.722 387.721 491.454 385.084 495.186 382.448 500.118 381.129 506.25 381.129ZM351.848 362.711 394.931 362.711 319.923 509.589 413.347 509.589 413.347 545.5 258.5 545.5ZM497.5 77.5001 579.139 237.361 538.834 237.361 498.506 148.163 440.895 275.589 556.118 275.589 556.118 275.589 598.661 275.589 736.5 545.5 581.653 545.5 581.653 510.168 675.077 510.168 580.251 324.483 579.245 326.453 579.245 323.324 371.962 323.324Z" stroke="#007FFF" stroke-width="1.33333" stroke-miterlimit="8" fill="#1976D2" fill-rule="evenodd"/></g></svg>